{"title":"Punjab 1984 2014 Punjabi DVDSCR-RIP GOPI SAHI @ SilverRG","uid":10453416,"size":529148899,"categoryP":"video","categoryS":"movies","magnet":"?xt=urn:btih:3f6cafd37ab8c54078484b8926ae37a256f467e2&amp;dn=Punjab+1984+2014+Punjabi+DVDSCR-RIP+GOPI+SAHI+%40+SilverRG&amp;tr=udp%3A%2F%2Ftracker.openbittorrent.com%3A80&amp;tr=udp%3A%2F%2Fopen.demonii.com%3A1337&amp;tr=udp%3A%2F%2Ftracker.coppersurfer.tk%3A6969&amp;tr=udp%3A%2F%2Fexodus.desync.com%3A6969","seeders":2,"leechers":1,"uploader":"jatt13","files":2,"time":1404047978,"description":"Video\nID                             : 1\nFormat                         : MPEG-4 Visual\nFormat profile                 : Simple@L1\nFormat settings, BVOP          : No\nFormat settings, QPel          : No\nFormat settings, GMC           : No warppoints\nFormat settings, Matrix        : Default (H.263)\nCodec ID                       : V_MS/VFW/FOURCC / DX50\nCodec ID/Hint                  : DivX 5\nDuration                       : 2h 18mn\nBit rate                       : 340 Kbps\nWidth                          : 640 pixels\nHeight                         : 480 pixels\nDisplay aspect ratio           : 4:3\nFrame rate mode                : Constant\nFrame rate                     : 25.000 fps\nColor space                    : YUV\nChroma subsampling             : 4:2:0\nBit depth                      : 8 bits\nScan type                      : Interlaced\nScan order                     : Top Field First\nCompression mode               : Lossy\nBits/(Pixel*Frame)             : 0.044\nStream size                    : 336 MiB (67%)\nTitle                          : GOPI SAHI\nWriting library                : Lavc52.72.2\nDefault                        : Yes\nForced                         : No\n\nAudio\nID                             : 2\nFormat                         : MPEG Audio\nFormat version                 : Version 1\nFormat profile                 : Layer 3\nMode                           : Joint stereo\nMode extension                 : MS Stereo\nCodec ID                       : A_MPEG/L3\nCodec ID/Hint                  : MP3\nDuration                       : 2h 18mn\nBit rate mode                  : Constant\nBit rate                       : 160 Kbps\nChannel(s)                     : 2 channels\nSampling rate                  : 44.1 KHz\nCompression mode               : Lossy\nStream size                    : 158 MiB (31%)\nTitle                          : GOPI SAHI\nDefault                        : Yes\nForced                         : No\n[IMG]http://i.imgur.com/4TjfCWe.jpg[/IMG]\n[IMG]http://i.imgur.com/eRc8UfX.jpg[/IMG]\n[IMG]http://i.imgur.com/qGm2Ci8.jpg[/IMG]\n[IMG]http://i.imgur.com/SKNFnG8.jpg[/IMG]","torrent":{"xt":"urn:btih:3f6cafd37ab8c54078484b8926ae37a256f467e2","amp;dn":"Punjab+1984+2014+Punjabi+DVDSCR-RIP+GOPI+SAHI+%40+SilverRG","amp;tr":["udp%3A%2F%2Ftracker.openbittorrent.com%3A80","udp%3A%2F%2Fopen.demonii.com%3A1337","udp%3A%2F%2Ftracker.coppersurfer.tk%3A6969","udp%3A%2F%2Fexodus.desync.com%3A6969"],"infoHash":"3f6cafd37ab8c54078484b8926ae37a256f467e2","infoHashBuffer":{"type":"Buffer","data":[63,108,175,211,122,184,197,64,120,72,75,137,38,174,55,162,86,244,103,226]},"announce":[],"urlList":[]}}